ISO-10303-21;
HEADER;
FILE_DESCRIPTION(('clothoid alignment segment'),'2;1');
FILE_NAME('ifc_clothoid.ifc','2000-01-01T00:00:00',(''),(''),'IfcOpenShell 0.8.5','carrier-fixture','none');
FILE_SCHEMA(('IFC4X3_ADD2'));
ENDSEC;
DATA;
#1=IFCCARTESIANPOINT((0.,0.));
#2=IFCALIGNMENTHORIZONTALSEGMENT($,$,#1,0.,$,100.,25.,$,.CLOTHOID.);
#3=IFCCARTESIANPOINT((0.,0.));
#4=IFCDIRECTION((1.,0.));
#5=IFCAXIS2PLACEMENT2D(#3,#4);
#6=IFCCLOTHOID(#5,50.);
#7=IFCALIGNMENTSEGMENT('0000000010080000000001',$,'clothoid',$,$,$,$,#2);
#8=IFCALIGNMENTHORIZONTAL('0000000010080000000002',$,'horizontal',$,$,$,$);
#9=IFCALIGNMENT('0000000010080000000003',$,'alignment',$,$,$,$,$);
#10=IFCRELNESTS('0000000010080000000004',$,'alignment-horizontal',$,#9,(#8));
#11=IFCRELNESTS('0000000010080000000005',$,'horizontal-segment',$,#8,(#7));
ENDSEC;
END-ISO-10303-21;
